<svg xmlns="http://www.w3.org/2000/svg" viewBox="0 0 913.02 1039.96"><defs><style>.cls-1{isolation:isolate;}.cls-2,.cls-6,.cls-8{mix-blend-mode:multiply;}.cls-3{fill:#d8d9dd;}.cls-4{opacity:0.2;}.cls-5,.cls-6{fill:#211915;}.cls-7{fill:#d6a95f;}.cls-8{fill:#f4e7e3;}.cls-9{fill:#fff;}.cls-10{fill:#c23334;}</style></defs><title>Mesa de trabajo 1 copia</title><g class="cls-1"><g id="Capa_1" data-name="Capa 1"><g class="cls-2"><path class="cls-3" d="M693.87,485.09a36.87,36.87,0,0,1-1.15,4.52A12.15,12.15,0,0,1,689.2,495l.41,0c2.61,0,4.72-3.21,4.72-7.18A10.87,10.87,0,0,0,693.87,485.09Z"/></g><g class="cls-4"><path class="cls-5" d="M473.14,569.35l98.54,326.77a20.82,20.82,0,0,0,25.93,14h0a20.82,20.82,0,0,0,13.94-25.93L513,557.36Z"/><path class="cls-6" d="M504,560.08l-30.83,9.27L483.56,604l.11,0c1.48-.29,3-.6,4.44-.92l1-.23c1.37-.3,2.73-.62,4.1-1l.52-.12c1.49-.37,3-.76,4.47-1.16l1-.29c1.51-.42,3-.85,4.53-1.3h0c1.58-.48,3.14-1,4.7-1.48l1.5-.5c1.05-.36,2.11-.71,3.16-1.08l1.44-.52,87.9,291.42a20.8,20.8,0,0,1-9.57,24,20.83,20.83,0,0,0,4.68-.83h0a20.82,20.82,0,0,0,13.94-25.93L523.43,592,513,557.36Z"/><circle class="cls-5" cx="434.91" cy="388.58" r="209.55" transform="translate(-147.39 421.34) rotate(-45)"/><path class="cls-5" d="M343.38,200.08c-104.1,50.55-147.52,175.92-97,280A208.88,208.88,0,0,0,366.07,586.5l-2.4-1.16-5.26-2.9-2.78-1.51c-.95-.5-1.84-1.12-2.78-1.69L347,575.68a209.89,209.89,0,0,1-24.56-19,193.54,193.54,0,0,1-25-27.32,202.3,202.3,0,0,1-21.89-36.6A209.41,209.41,0,0,1,267,471.09c-.63-1.89-1.15-3.83-1.75-5.76s-1.26-3.87-1.69-5.87c-.94-4-2.09-8-2.78-12.11a209.73,209.73,0,0,1-3.53-25.49q-.15-3.28-.3-6.61l-.17-3.33,0-3.35V401.8c.12-2.26.25-4.53.37-6.82l.17-3.44.37-3.44q.35-3.47.7-7c.36-2.32.72-4.64,1.09-7l.54-3.52.74-3.5c.48-2.34,1-4.7,1.46-7.06s1.23-4.7,1.85-7.06l.45-1.78.23-.89c-.2.5.59-1.75-.41,1l.19-.57,1.47-4.5,1.49-4.53.35-1,.25-.65.49-1.3.94-2.63.46-1.33.68-1.59c.94-2.11,1.78-4.3,2.76-6.41s2.05-4.22,3.08-6.34,2.27-4.14,3.42-6.21a157.41,157.41,0,0,1,16.74-23.61,161,161,0,0,1,47.42-37.72,164.33,164.33,0,0,1,94.51-17.86c2.81.2,5.57.7,8.36,1.13s5.57,1,8.36,1.56,5.55,1.27,8.32,2l2.08.53,1.05.27c1.17.4-1-.41-.55-.24l.65.22,5.21,1.7,2.49.83,1.53.58c1,.39,2.06.75,3.1,1.1l3.67,1.57c1.23.53,2.5,1,3.69,1.64,2.41,1.18,4.87,2.32,7.2,3.69,1.17.67,2.4,1.25,3.54,2l3.45,2.14c1.19.67,2.27,1.49,3.4,2.26s2.27,1.51,3.36,2.33c2.13,1.7,4.41,3.24,6.44,5.08a133.15,133.15,0,0,1,12,11.39l2.75,3.13,1.38,1.56,1.3,1.64,2.62,3.27,2.46,3.41,1.24,1.71,1.14,1.76,2.32,3.54,2.13,3.65,1.08,1.83,1,1.88,2,3.76,1.78,3.86.9,1.94.8,2,1.61,4,1.42,4,.71,2,.6,2.05,1.24,4.11,1,4.17.52,2.09.4,2.11.84,4.23.61,4.26.33,2.14.19,2.15.43,4.3.19,4.32.11,2.17c0,.72,0,1.44,0,2.17v4.34a139.17,139.17,0,0,1-1.61,17.36c-.38,2.9-1,5.75-1.62,8.63-.25,1.45-.66,2.86-1,4.28l-.56,2.14-.28,1.07-.13.53c.08-.19-.39,1.19.15-.29l-1.73,5.27-.43,1.31-.31.83-.6,1.61-.57,1.62c-.23.59-.54,1.25-.8,1.88-.57,1.25-1,2.56-1.66,3.79a102.47,102.47,0,0,1-8.21,14.39c-1.52,2.32-3.25,4.49-4.93,6.71s-3.57,4.27-5.52,6.26A106.62,106.62,0,0,1,518.73,459a109.05,109.05,0,0,1-63,22.25,121.16,121.16,0,0,1-17-.86,127.44,127.44,0,0,1-16.77-3.5c1.08.41-.06,0,0,0l-.63-.2-1.26-.42-2.52-.82-3.35-1.23c-.51-.15-1.17-.47-1.78-.72l-1.85-.8c-1.26-.5-2.42-1.17-3.64-1.73a85.72,85.72,0,0,1-13.61-8.6,88,88,0,0,1-32.57-54.34A90.63,90.63,0,0,1,361,376l.83-3.94,1-3.91.13-.48c.1-.36-.55,1.4-.18.38l.41-1.15.82-2.29L365.7,360c1-2.08,1.83-3.93,2.84-6l1.94-3.25a27.93,27.93,0,0,1,2-3.22,71.72,71.72,0,0,1,21.83-20.62,72.9,72.9,0,0,1,57.41-8l.9.21c-.14-.07.95.31-.2-.14l.51.19,2,.72,4.07,1.45,2.83,1.34a21.53,21.53,0,0,1,2.86,1.41,53.4,53.4,0,0,1,5.84,3.71l2.8,2,2.56,2.31a50.68,50.68,0,0,1,4.81,4.91,23.92,23.92,0,0,1,2.15,2.67l2.06,2.73,1.78,2.92a24.73,24.73,0,0,1,1.68,3,51,51,0,0,1,2.78,6.18,61,61,0,0,1,4,26.13c-.16,2.18-.57,4.33-.81,6.5-.45,2.12-1,4.22-1.48,6.33-.06.22.22-.54,0,0l-.16.44-.31.87-.62,1.74-.61,1.73-.16.43-.15.31-.31.63-1.18,2.54a28.18,28.18,0,0,1-1.5,2.62,47.92,47.92,0,0,1-7.43,9.57l-2.23,2c-.37.33-.73.69-1.11,1l-1.2.89-2.39,1.8L471,421.61a46.94,46.94,0,0,1-5.21,2.73,24.18,24.18,0,0,1-2.7,1.09c-.91.32-1.81.7-2.73,1a52.68,52.68,0,0,1-11.21,2.09,51,51,0,0,1-21.66-3.11l-.7-.24-.55-.27-1.09-.52c-.73-.36-1.46-.62-2.19-1.06a39.89,39.89,0,0,1-4.28-2.73l-2-1.49-1.85-1.68a37.91,37.91,0,0,1-3.41-3.54c-.61-.71-1.17-1.44-1.72-2.18a36.41,36.41,0,1,0,9.22-59.61,38.46,38.46,0,0,0-3.95,2,37.46,37.46,0,0,0-10.87,9.65,31.94,31.94,0,0,0-2.31,3.39,33.89,33.89,0,0,0-2,3.74q-.42.92-.84,1.86l-.11.24-.13.37-.17.52-.35,1a31.74,31.74,0,0,0-1.28,4.32,47.77,47.77,0,0,0-.69,19.5,49.36,49.36,0,0,0,8.43,20.37,48.16,48.16,0,0,0,3.76,4.63l2.09,2.22,2.31,2.05a50.37,50.37,0,0,0,5,3.81c.87.62,1.91,1.14,2.87,1.71l1.49.84.74.41.67.3a62.73,62.73,0,0,0,25.92,5.9,65.31,65.31,0,0,0,14.27-1.46c1.2-.27,2.37-.63,3.57-1a34.74,34.74,0,0,0,3.56-1.09,62.16,62.16,0,0,0,7-2.93c1.14-.58,2.29-1.14,3.43-1.74l3.3-2.06,1.66-1c.54-.37,1-.78,1.57-1.18l3.15-2.42a64.85,64.85,0,0,0,11-11.91c.79-1.16,1.64-2.17,2.38-3.48l2.21-3.9.54-1,.28-.5.19-.42.75-1.67.77-1.68.38-.84.19-.42a8.81,8.81,0,0,0,.34-.88c.88-2.64,1.81-5.29,2.61-8,.6-2.76,1.33-5.54,1.78-8.39a81.8,81.8,0,0,0-2.33-35.41A74.93,74.93,0,0,0,509,338.8a39,39,0,0,0-2-4.27c-.71-1.4-1.42-2.82-2.13-4.23l-2.52-4.06a42.11,42.11,0,0,0-2.68-4,77.23,77.23,0,0,0-6.18-7.51l-3.39-3.58-3.72-3.28a79.29,79.29,0,0,0-8-6.07,48.11,48.11,0,0,0-4.57-2.78c-1.58-.88-3.26-1.83-4.78-2.62l-3.93-1.78-2-.89-.49-.23c-1.48-.55-.75-.26-1.24-.44l-1.18-.4a102.07,102.07,0,0,0-40.44-6.2,105,105,0,0,0-41.5,10.85,106.86,106.86,0,0,0-35.11,27.94,52.69,52.69,0,0,0-3.5,4.61l-3.37,4.76c-2.16,3.46-4.28,7.37-6.22,11l-2,4.43-1,2.22-.51,1.11c.23-.65-.59,1.48-.59,1.52l-.25.67L323.86,361l-1.67,5.53a132.15,132.15,0,0,0,8.53,93.56A135.45,135.45,0,0,0,381.07,516c1.86,1.1,3.68,2.29,5.6,3.3l2.87,1.55c1,.51,1.86,1,3,1.53l3.24,1.53,1.63.75c.53.24,1.14.52,1.49.66l2.44,1,1.22.52.61.26a13.08,13.08,0,0,0,1.25.49,183.11,183.11,0,0,0,24.33,7.31,176.41,176.41,0,0,0,25.53,3.53,169.88,169.88,0,0,0,100.82-26.23,172.84,172.84,0,0,0,21.65-16.32c3.44-3,6.66-6.2,9.89-9.43s6.22-6.71,9.1-10.29a171.63,171.63,0,0,0,15.74-22.68c1.2-2,2.23-4,3.34-6.07.55-1,1.09-2,1.64-3.1l1.63-3.45,1.61-3.48.78-1.71.54-1.28,2.16-5.11,2.56-7.11c.75-2.1,1.52-4.2,2.13-6.35,1.3-4.27,2.62-8.56,3.62-12.94a213.16,213.16,0,0,0,4.81-26.58l.62-6.76c.1-1.13.22-2.25.29-3.38l.15-3.4.26-6.8-.05-6.81,0-3.41-.19-3.41-.4-6.81-.44-4.24a210.82,210.82,0,0,0-13.09-34.23C572.86,193,447.49,149.53,343.38,200.08Z"/><path class="cls-6" d="M623.41,297.06a208.7,208.7,0,0,0-62.94-76.29,210.36,210.36,0,0,1,22.95,37c50.55,104.11,7.13,229.48-97,280a209.53,209.53,0,0,1-217.08-20.7c59.42,76.7,166.32,104,257.07,60C630.54,526.54,674,401.17,623.41,297.06Z"/></g><path class="cls-7" d="M453.3,560.84l98.53,326.78a20.82,20.82,0,0,0,25.93,13.94h0a20.83,20.83,0,0,0,14-25.93L493.17,548.86Z"/><path class="cls-8" d="M484.13,551.58l-30.83,9.26,10.42,34.66.11,0c1.48-.28,3-.59,4.43-.91l1-.23c1.37-.3,2.73-.62,4.1-1l.51-.13c1.49-.36,3-.76,4.47-1.16l1.06-.29c1.51-.41,3-.84,4.53-1.3h0c1.58-.47,3.14-1,4.7-1.47l1.49-.51c1.06-.35,2.11-.71,3.16-1.08l1.45-.52,87.9,291.42a20.82,20.82,0,0,1-9.57,24,20.67,20.67,0,0,0,4.67-.84h0a20.83,20.83,0,0,0,14-25.93L503.59,583.51l-10.42-34.65Z"/><circle class="cls-9" cx="415.06" cy="380.08" r="209.55" transform="translate(-147.19 404.82) rotate(-45)"/><path class="cls-10" d="M323.54,191.57c-104.11,50.55-147.53,175.92-97,280A208.91,208.91,0,0,0,346.22,578l-2.4-1.15-5.26-2.91-2.78-1.5c-.94-.5-1.83-1.13-2.77-1.69l-5.81-3.56a211,211,0,0,1-24.56-19,193,193,0,0,1-25-27.33,202.2,202.2,0,0,1-21.89-36.59,211.7,211.7,0,0,1-8.64-21.67c-.62-1.9-1.14-3.84-1.74-5.77S244.13,453,243.7,451c-.95-4-2.09-8-2.79-12.11a209.29,209.29,0,0,1-3.52-25.48c-.1-2.19-.2-4.4-.31-6.61l-.17-3.33,0-3.35V393.3c.12-2.26.24-4.54.37-6.82l.16-3.45.37-3.44c.24-2.31.47-4.62.71-6.95s.72-4.64,1.09-7l.54-3.52.73-3.5c.49-2.35,1-4.7,1.47-7.07s1.23-4.69,1.84-7.05l.46-1.78.23-.89c-.2.5.59-1.75-.41,1l.18-.56,1.48-4.51,1.49-4.52.35-1.06.25-.64.49-1.3.94-2.63.45-1.34.69-1.58c.93-2.11,1.77-4.3,2.76-6.42s2-4.21,3.07-6.33l3.42-6.22a158.64,158.64,0,0,1,16.75-23.6,161.2,161.2,0,0,1,47.42-37.73,164.57,164.57,0,0,1,94.51-17.86c2.8.21,5.57.71,8.36,1.13s5.57,1,8.35,1.57,5.56,1.27,8.33,2l2.08.54,1,.27c1.17.4-1-.41-.54-.24l.65.21,5.2,1.71,2.5.83,1.53.58c1,.38,2.06.75,3.1,1.1l3.67,1.56c1.23.53,2.5,1,3.68,1.64,2.42,1.19,4.88,2.32,7.2,3.69,1.17.68,2.41,1.25,3.54,2l3.46,2.14c1.19.68,2.27,1.49,3.4,2.26s2.26,1.52,3.36,2.33c2.13,1.71,4.41,3.25,6.44,5.09a131.53,131.53,0,0,1,12,11.38l2.75,3.13,1.39,1.57,1.3,1.64,2.62,3.27,2.46,3.41,1.24,1.7,1.14,1.77,2.31,3.53,2.14,3.66,1.07,1.82,1,1.88,2,3.77,1.79,3.86.9,1.93.8,2,1.61,3.95,1.41,4,.72,2,.6,2.05,1.24,4.11,1,4.17.52,2.09.4,2.11.84,4.22.61,4.27.32,2.14.2,2.14.42,4.31.2,4.32.11,2.17c0,.72,0,1.44,0,2.16v4.35a137.32,137.32,0,0,1-1.62,17.36c-.37,2.9-1,5.75-1.61,8.62-.25,1.45-.67,2.86-1,4.29l-.55,2.13-.28,1.07-.14.54c.09-.19-.38,1.19.16-.3l-1.73,5.27-.43,1.32-.32.83-.59,1.6-.57,1.63c-.24.59-.54,1.25-.8,1.87-.57,1.26-1,2.57-1.66,3.79a101.91,101.91,0,0,1-8.21,14.39c-1.52,2.32-3.25,4.49-4.93,6.71s-3.57,4.28-5.53,6.27a106.44,106.44,0,0,1-12.45,11.25,109,109,0,0,1-63,22.26,121.3,121.3,0,0,1-17-.86,128.94,128.94,0,0,1-16.76-3.5c1.08.4-.07,0,0,0l-.63-.21-1.26-.41-2.51-.83-3.36-1.22c-.5-.15-1.17-.47-1.77-.73l-1.86-.79c-1.25-.5-2.41-1.17-3.63-1.73a84.83,84.83,0,0,1-13.61-8.6,88,88,0,0,1-32.57-54.35,90.34,90.34,0,0,1,.27-32.09l.83-4,1-3.9.12-.49c.11-.35-.55,1.4-.17.38l.41-1.14.82-2.3,1.63-4.57c1-2.09,1.83-3.93,2.84-6l1.93-3.26a27,27,0,0,1,2-3.21,71.6,71.6,0,0,1,21.83-20.62,72.78,72.78,0,0,1,57.41-8l.9.2c-.14-.07.94.31-.2-.13l.51.18,2,.73,4.07,1.45,2.83,1.33a21.65,21.65,0,0,1,2.86,1.42,52.86,52.86,0,0,1,5.84,3.71l2.8,2c.85.78,1.71,1.54,2.56,2.31a51.84,51.84,0,0,1,4.81,4.91,23.94,23.94,0,0,1,2.14,2.68l2.07,2.73,1.77,2.92a23.39,23.39,0,0,1,1.69,2.95,54.11,54.11,0,0,1,2.78,6.18,60.83,60.83,0,0,1,3.95,26.14c-.15,2.18-.56,4.33-.8,6.49-.45,2.13-1,4.22-1.48,6.34-.06.22.22-.54,0,0l-.15.44-.31.87L472,388l-.62,1.74-.15.43-.16.31-.3.63-1.19,2.54c-.36.85-1,1.74-1.49,2.62a48.92,48.92,0,0,1-7.44,9.57l-2.22,2c-.37.34-.73.7-1.12,1l-1.19.89-2.39,1.8-2.53,1.54a46.23,46.23,0,0,1-5.21,2.74,23,23,0,0,1-2.7,1.08c-.92.33-1.82.7-2.73,1a52.09,52.09,0,0,1-11.21,2.1,51.17,51.17,0,0,1-21.67-3.11l-.69-.25-.55-.26-1.09-.52c-.73-.37-1.46-.63-2.19-1.06a41.51,41.51,0,0,1-4.28-2.73l-2-1.5L395,408.92a39.19,39.19,0,0,1-3.41-3.54c-.61-.71-1.18-1.44-1.72-2.18a36.41,36.41,0,1,0,9.22-59.61,36.53,36.53,0,0,0-14.83,11.63,34.79,34.79,0,0,0-2.3,3.4,32.9,32.9,0,0,0-2,3.73l-.85,1.87-.1.23-.13.37-.18.52-.35,1.05a35.23,35.23,0,0,0-1.28,4.31,48,48,0,0,0-.69,19.51,49.42,49.42,0,0,0,8.44,20.36,46.7,46.7,0,0,0,3.76,4.63l2.08,2.23,2.32,2a50.45,50.45,0,0,0,5,3.82c.87.61,1.9,1.14,2.87,1.71l1.49.83.74.41.67.31a62.56,62.56,0,0,0,25.91,5.89A64.71,64.71,0,0,0,443.94,431c1.19-.28,2.37-.64,3.56-1a34.22,34.22,0,0,0,3.57-1.1,60.21,60.21,0,0,0,7-2.93c1.14-.57,2.3-1.13,3.44-1.74l3.3-2.05,1.65-1c.55-.37,1.05-.79,1.58-1.18l3.14-2.42a65.15,65.15,0,0,0,11-11.91c.79-1.16,1.65-2.18,2.38-3.48l2.22-3.91.54-1,.27-.5.19-.42.76-1.67.76-1.68.39-.85.19-.42c-.08.25.32-.79.34-.87.87-2.64,1.81-5.3,2.61-8,.6-2.77,1.33-5.55,1.78-8.4a81.66,81.66,0,0,0-2.34-35.41,74.72,74.72,0,0,0-3.08-8.76,38.2,38.2,0,0,0-2-4.27l-2.13-4.23-2.52-4.06a42.75,42.75,0,0,0-2.68-4,77.23,77.23,0,0,0-6.18-7.51l-3.39-3.58-3.72-3.28a78.3,78.3,0,0,0-8-6.07,43.92,43.92,0,0,0-4.57-2.78c-1.57-.88-3.25-1.83-4.78-2.62l-3.93-1.78-2-.9-.49-.22a10.92,10.92,0,0,0-1.24-.44l-1.18-.4A102.27,102.27,0,0,0,400,278a105.2,105.2,0,0,0-41.49,10.86,106.73,106.73,0,0,0-35.11,27.93,50.93,50.93,0,0,0-3.5,4.62l-3.38,4.75c-2.15,3.47-4.28,7.38-6.22,11l-2,4.42-1,2.22-.5,1.11c.23-.64-.59,1.49-.6,1.53l-.24.67L304,352.5,302.35,358a132.17,132.17,0,0,0,8.53,93.57,135.39,135.39,0,0,0,50.34,55.88c1.87,1.1,3.69,2.3,5.61,3.31l2.87,1.54c1,.52,1.86,1,3,1.54l3.24,1.52,1.63.75c.53.25,1.14.53,1.48.67l2.44,1,1.22.52.61.25a11,11,0,0,0,1.26.49,182.7,182.7,0,0,0,24.33,7.32,177.62,177.62,0,0,0,25.53,3.53A169.89,169.89,0,0,0,535.25,503.7a171.94,171.94,0,0,0,21.64-16.31c3.44-3,6.67-6.2,9.9-9.44s6.22-6.7,9.09-10.28A172.36,172.36,0,0,0,591.63,445c1.2-2,2.23-4.05,3.34-6.08.55-1,1.09-2,1.64-3.09l1.63-3.46,1.61-3.47.78-1.72.54-1.27,2.16-5.11,2.56-7.11c.75-2.11,1.52-4.2,2.13-6.35,1.3-4.28,2.62-8.56,3.62-12.94a213.65,213.65,0,0,0,4.81-26.59l.62-6.75c.1-1.13.21-2.26.28-3.39l.15-3.39.27-6.8,0-6.81,0-3.42-.18-3.4-.4-6.82-.44-4.23a211,211,0,0,0-13.09-34.23C553,184.45,427.65,141,323.54,191.57Z"/><path class="cls-8" d="M603.57,288.56a208.63,208.63,0,0,0-63-76.29,209.82,209.82,0,0,1,23,37c50.55,104.11,7.13,229.48-97,280A209.51,209.51,0,0,1,249.52,508.6c59.42,76.7,166.32,104,257.07,60C610.69,518,654.11,392.66,603.57,288.56Z"/></g></g></svg>